<svg width="0" height="0" class="hidden">
  <symbol fill="none" xmlns="http://www.w3.org/2000/svg" viewBox="0 0 17 17" id="dribbble">
    <path fill-rule="evenodd" clip-rule="evenodd" d="M8.5 0C3.80729 0 0 3.80729 0 8.5C0 13.1927 3.80729 17 8.5 17C13.1835 17 17 13.1927 17 8.5C17 3.80729 13.1835 0 8.5 0ZM14.1143 3.91779C15.1608 5.19232 15.7399 6.78647 15.7555 8.43554C15.516 8.3895 13.119 7.90075 10.7036 8.20533C10.6477 8.08492 10.6016 7.956 10.5464 7.82708C10.3962 7.47249 10.2365 7.12198 10.0675 6.77592C12.7408 5.68792 13.9577 4.12108 14.1143 3.91779V3.91779ZM8.5 1.25446C10.3438 1.25446 12.031 1.94508 13.3124 3.07913C13.1835 3.26329 12.0863 4.72954 9.50512 5.69712C8.31512 3.51262 6.99762 1.72337 6.79433 1.44712C7.35344 1.31657 7.92586 1.25167 8.5 1.25375V1.25446ZM5.41167 1.93587C5.60504 2.19442 6.89562 3.99217 8.10333 6.13062C4.71042 7.03446 1.71417 7.01604 1.39187 7.01604C1.86221 4.76637 3.38371 2.89496 5.41167 1.93587ZM1.23533 8.50921V8.28821C1.54912 8.29742 5.07025 8.34346 8.69408 7.25546C8.90587 7.66133 9.09925 8.07571 9.28342 8.49079C9.19133 8.51842 9.09004 8.54604 8.99796 8.57367C5.25512 9.78137 3.26329 13.0815 3.09754 13.3585C1.89862 12.0279 1.23519 10.3003 1.23533 8.50921V8.50921ZM8.5 15.7647C6.88642 15.7672 5.31862 15.2285 4.04742 14.2347C4.17633 13.9669 5.65108 11.1272 9.74454 9.6985C9.76296 9.68929 9.77287 9.68929 9.79058 9.68008C10.8141 12.3257 11.2285 14.5478 11.3397 15.1838C10.4635 15.5621 9.50512 15.7647 8.5 15.7647ZM12.5474 14.5201C12.4738 14.0774 12.0863 11.9574 11.1364 9.34787C13.4137 8.98875 15.4048 9.57879 15.6542 9.66167C15.3404 11.6804 14.1787 13.4229 12.5474 14.5201Z" fill="#F6F6F6"></path>
  </symbol>
  <symbol fill="none" xmlns="http://www.w3.org/2000/svg" viewBox="0 0 17 17" id="instagram">
    <path fill-rule="evenodd" clip-rule="evenodd" d="M5.28775 0.755124C6.11862 0.716874 6.38354 0.708374 8.50004 0.708374C10.6165 0.708374 10.8815 0.717582 11.7116 0.755124C12.5418 0.792666 13.1085 0.925124 13.6043 1.11708C14.1235 1.31329 14.5945 1.62 14.9841 2.01667C15.3808 2.40554 15.6868 2.87587 15.8823 3.39579C16.075 3.89162 16.2067 4.45829 16.245 5.28704C16.2832 6.11933 16.2917 6.38425 16.2917 8.50004C16.2917 10.6165 16.2825 10.8815 16.245 11.7123C16.2074 12.5411 16.075 13.1077 15.8823 13.6036C15.6868 14.1236 15.3803 14.5947 14.9841 14.9841C14.5945 15.3808 14.1235 15.6868 13.6043 15.8823C13.1085 16.075 12.5418 16.2067 11.713 16.245C10.8815 16.2832 10.6165 16.2917 8.50004 16.2917C6.38354 16.2917 6.11862 16.2825 5.28775 16.245C4.459 16.2074 3.89233 16.075 3.3965 15.8823C2.87653 15.6868 2.40541 15.3803 2.01596 14.9841C1.61956 14.595 1.31281 14.1241 1.11708 13.6043C0.925124 13.1085 0.793374 12.5418 0.755124 11.713C0.716874 10.8807 0.708374 10.6158 0.708374 8.50004C0.708374 6.38354 0.717582 6.11862 0.755124 5.28846C0.792666 4.45829 0.925124 3.89162 1.11708 3.39579C1.31309 2.87593 1.62008 2.40505 2.01667 2.01596C2.40557 1.61965 2.87621 1.3129 3.39579 1.11708C3.89162 0.925124 4.45829 0.793374 5.28704 0.755124H5.28775ZM11.6486 2.15762C10.8269 2.12008 10.5804 2.11229 8.50004 2.11229C6.41967 2.11229 6.17317 2.12008 5.3515 2.15762C4.59146 2.19233 4.17921 2.31912 3.90437 2.42608C3.541 2.56775 3.28104 2.73562 3.00833 3.00833C2.74982 3.25983 2.55088 3.56599 2.42608 3.90437C2.31912 4.17921 2.19233 4.59146 2.15762 5.3515C2.12008 6.17317 2.11229 6.41967 2.11229 8.50004C2.11229 10.5804 2.12008 10.8269 2.15762 11.6486C2.19233 12.4086 2.31912 12.8209 2.42608 13.0957C2.55075 13.4336 2.74979 13.7403 3.00833 13.9917C3.25979 14.2503 3.5665 14.4493 3.90437 14.574C4.17921 14.681 4.59146 14.8077 5.3515 14.8425C6.17317 14.88 6.41896 14.8878 8.50004 14.8878C10.5811 14.8878 10.8269 14.88 11.6486 14.8425C12.4086 14.8077 12.8209 14.681 13.0957 14.574C13.4591 14.4323 13.719 14.2645 13.9917 13.9917C14.2503 13.7403 14.4493 13.4336 14.574 13.0957C14.681 12.8209 14.8077 12.4086 14.8425 11.6486C14.88 10.8269 14.8878 10.5804 14.8878 8.50004C14.8878 6.41967 14.88 6.17317 14.8425 5.3515C14.8077 4.59146 14.681 4.17921 14.574 3.90437C14.4323 3.541 14.2645 3.28104 13.9917 3.00833C13.7402 2.74984 13.4341 2.5509 13.0957 2.42608C12.8209 2.31912 12.4086 2.19233 11.6486 2.15762V2.15762ZM7.50483 10.902C8.06063 11.1334 8.67952 11.1646 9.25578 10.9903C9.83205 10.8161 10.3299 10.4472 10.6644 9.94663C10.9989 9.44607 11.1492 8.84491 11.0897 8.24582C11.0302 7.64674 10.7646 7.0869 10.3382 6.66192C10.0663 6.39025 9.73765 6.18224 9.37578 6.05285C9.0139 5.92347 8.62784 5.87592 8.24539 5.91364C7.86294 5.95137 7.49361 6.07342 7.16398 6.27101C6.83436 6.4686 6.55265 6.73682 6.33913 7.05635C6.12561 7.37589 5.98559 7.73879 5.92916 8.11893C5.87272 8.49907 5.90127 8.887 6.01276 9.25478C6.12424 9.62256 6.31588 9.96106 6.57388 10.2459C6.83189 10.5307 7.14983 10.7548 7.50483 10.902ZM5.66812 5.66812C6.04002 5.29623 6.48152 5.00123 6.96742 4.79996C7.45332 4.5987 7.9741 4.49511 8.50004 4.49511C9.02598 4.49511 9.54676 4.5987 10.0327 4.79996C10.5186 5.00123 10.9601 5.29623 11.332 5.66812C11.7038 6.04002 11.9989 6.48152 12.2001 6.96742C12.4014 7.45332 12.505 7.9741 12.505 8.50004C12.505 9.02598 12.4014 9.54676 12.2001 10.0327C11.9989 10.5186 11.7038 10.9601 11.332 11.332C10.5809 12.083 9.56222 12.505 8.50004 12.505C7.43787 12.505 6.41919 12.083 5.66812 11.332C4.91705 10.5809 4.49511 9.56222 4.49511 8.50004C4.49511 7.43787 4.91705 6.41919 5.66812 5.66812V5.66812ZM13.3932 5.09154C13.4854 5.00461 13.5591 4.90006 13.6102 4.78411C13.6612 4.66815 13.6884 4.54313 13.6903 4.41645C13.6921 4.28977 13.6686 4.16401 13.6209 4.04661C13.5733 3.92922 13.5026 3.82257 13.413 3.73298C13.3234 3.6434 13.2168 3.5727 13.0994 3.52507C12.982 3.47745 12.8562 3.45386 12.7295 3.4557C12.6029 3.45755 12.4779 3.4848 12.3619 3.53583C12.2459 3.58686 12.1414 3.66063 12.0545 3.75279C11.8854 3.93202 11.7928 4.17008 11.7964 4.41645C11.8 4.66281 11.8995 4.89808 12.0737 5.0723C12.2479 5.24653 12.4832 5.34599 12.7295 5.34959C12.9759 5.35318 13.214 5.26061 13.3932 5.09154V5.09154Z" fill="#F6F6F6"></path>
  </symbol>
  <symbol fill="none" xmlns="http://www.w3.org/2000/svg" viewBox="0 0 17 17" id="twitter">
    <path d="M16.7471 3.49708C16.1557 3.75916 15.5203 3.93624 14.8523 4.01628C15.5415 3.60389 16.0572 2.95482 16.303 2.1902C15.6555 2.57482 14.9468 2.84555 14.2077 2.99062C13.7108 2.45998 13.0525 2.10827 12.3351 1.99008C11.6178 1.87189 10.8815 1.99384 10.2405 2.337C9.59959 2.68016 9.08987 3.22533 8.79051 3.88787C8.49116 4.5504 8.41891 5.29323 8.58499 6.00103C7.27293 5.93516 5.98939 5.59413 4.81766 5.00009C3.64594 4.40605 2.61221 3.57227 1.78357 2.55287C1.50024 3.04162 1.33732 3.60828 1.33732 4.21178C1.33701 4.75507 1.47079 5.29004 1.72682 5.76922C1.98284 6.2484 2.35319 6.65698 2.80499 6.9587C2.28102 6.94203 1.76861 6.80045 1.3104 6.54574V6.58824C1.31035 7.35023 1.57393 8.08876 2.05641 8.67853C2.53889 9.2683 3.21056 9.67298 3.95745 9.82391C3.47138 9.95546 2.96177 9.97483 2.46711 9.88058C2.67784 10.5362 3.08832 11.1096 3.64108 11.5203C4.19384 11.9311 4.86122 12.1587 5.54978 12.1713C4.38091 13.0889 2.93737 13.5866 1.45136 13.5844C1.18813 13.5845 0.925125 13.5691 0.663696 13.5384C2.17208 14.5082 3.92794 15.0229 5.7212 15.0209C11.7916 15.0209 15.1102 9.9932 15.1102 5.6327C15.1102 5.49103 15.1066 5.34795 15.1002 5.20628C15.7457 4.73947 16.3029 4.16142 16.7457 3.4992L16.7471 3.49708V3.49708Z" fill="#F6F6F6"></path>
  </symbol>
  <symbol fill="none" xmlns="http://www.w3.org/2000/svg" viewBox="0 0 17 17" id="youtube">
    <g clip-path="url(#clip0_132_195)">
      <path d="M16.6458 4.60914C16.5495 4.26576 16.362 3.95488 16.1032 3.70955C15.8371 3.45668 15.5109 3.2758 15.1554 3.18397C13.8252 2.83335 8.4957 2.83335 8.4957 2.83335C6.27389 2.80807 4.05263 2.91925 1.84445 3.16626C1.489 3.26487 1.16343 3.4498 0.896699 3.7046C0.634616 3.95676 0.444782 4.26772 0.345616 4.60843C0.107398 5.89175 -0.00834426 7.1948 -5.11098e-05 8.50001C-0.00855111 9.80405 0.106907 11.1067 0.345616 12.3916C0.442657 12.7309 0.631782 13.0404 0.894574 13.2905C1.15737 13.5405 1.48462 13.7211 1.84445 13.8168C3.19241 14.1667 8.4957 14.1667 8.4957 14.1667C10.7203 14.192 12.9444 14.0808 15.1554 13.8338C15.5109 13.7419 15.8371 13.5611 16.1032 13.3082C16.3619 13.0629 16.5492 12.752 16.6451 12.4086C16.8895 11.1258 17.0084 9.82218 16.9999 8.5163C17.0183 7.2049 16.8996 5.89516 16.6458 4.60843V4.60914ZM6.80137 10.9253V6.07539L11.2355 8.50072L6.80137 10.9253Z" fill="#F6F6F6"></path>
    </g>
    <defs>
      <clipPath id="clip0_132_195">
        <rect width="17" height="17" fill="white"></rect>
      </clipPath>
    </defs>
  </symbol>
</svg>